<svg width="17" height="18" viewBox="0 0 17 18" fill="none" xmlns="http://www.w3.org/2000/svg">
<path d="M13.6602 3.66356L13.6602 3.66357L13.6582 3.66133C13.2467 3.19639 12.5668 3.11987 12.0865 3.46555L12.0861 3.46588C11.5756 3.83223 11.4024 4.51229 11.688 5.07775L11.6894 5.08055C11.7528 5.20853 11.8554 5.33874 11.9779 5.46119L11.9797 5.46302C13.452 6.95324 14.0432 8.7728 13.52 10.8799L13.52 10.8801C13.0204 12.8889 11.7341 14.2235 9.84082 14.8239L9.84027 14.824C7.99471 15.4064 6.25642 15.0344 4.76677 13.7822C3.48271 12.7056 2.8251 11.2565 2.8025 9.54987C2.78303 8.188 3.23997 6.98374 4.07951 5.95595C4.15255 5.86596 4.23421 5.79303 4.29302 5.74096C4.29816 5.7364 4.30314 5.732 4.30797 5.72772C4.36572 5.67664 4.40165 5.64486 4.43274 5.61054L4.43272 5.61053L4.43579 5.60721C4.77379 5.24237 4.86432 4.82875 4.71678 4.3435C4.5675 3.86513 4.25168 3.59353 3.77633 3.49709C3.42929 3.42743 3.11542 3.51414 2.80609 3.76254L2.80485 3.76353C2.18762 4.25527 1.75448 4.92154 1.35068 5.67539C0.672153 6.94329 0.366263 8.31209 0.414959 9.76834L0.414974 9.76883C0.472251 11.5447 1.03438 13.1218 2.09476 14.5063C3.10148 15.8176 4.35846 16.737 5.8793 17.2011L5.87964 17.2012C8.47512 17.9959 10.8737 17.581 13.0464 15.8798L13.0466 15.8797C14.4528 14.7802 15.3773 13.3191 15.8363 11.5341L15.8368 11.5323C16.0093 10.874 16.0842 10.1962 16.0874 9.4991C16.055 7.28023 15.2954 5.39239 13.8003 3.82272L14.0972 3.53997L13.8011 3.82357C13.769 3.79002 13.7164 3.7288 13.6847 3.69191C13.6729 3.67824 13.6641 3.66791 13.6602 3.66356Z" fill="#FF8C00" stroke="white" stroke-width="0.8"/>
<path d="M6.62958 7.11521C6.63258 7.97652 7.25962 8.69061 8.07568 8.77205C8.92173 8.85974 9.67779 8.28972 9.8458 7.43155C9.8698 7.3094 9.8728 7.18412 9.8728 7.05883M6.62958 7.11521C6.62358 4.79752 6.62358 3.98307 6.62958 1.66538C6.62958 1.04838 6.9086 0.569177 7.40963 0.255976C7.93167 -0.0728854 8.48971 -0.0854134 9.02374 0.221524C9.56978 0.534725 9.8638 1.03272 9.8668 1.69044M6.62958 7.11521L7.03955 7.11415C7.03955 7.11412 7.03955 7.11409 7.03955 7.11406C7.042 7.7792 7.5232 8.3049 8.11639 8.36409L8.11794 8.36426C8.74536 8.42929 9.31472 8.01038 9.44346 7.35278L9.44352 7.3525C9.45919 7.27271 9.4628 7.18216 9.46282 7.0599M6.62958 7.11521L7.03955 7.11378L9.46282 7.0599M9.8668 1.69044C9.86871 2.42611 9.86819 2.85621 9.86755 3.37082C9.86719 3.66245 9.8668 3.98122 9.8668 4.39813V4.39818C9.8668 5.53506 9.8668 5.92193 9.8728 7.05883M9.8668 1.69044L9.45683 1.69231C9.45683 1.69218 9.45683 1.69206 9.45683 1.69193M9.8668 1.69044L9.45683 1.6915C9.45683 1.69165 9.45683 1.69179 9.45683 1.69193M9.8728 7.05883L9.46283 7.061C9.46283 7.06063 9.46283 7.06027 9.46282 7.0599M9.8728 7.05883H9.46282C9.46282 7.05919 9.46282 7.05954 9.46282 7.0599M9.46282 7.0599C9.45682 5.92279 9.45682 5.53499 9.45682 4.39813C9.45682 3.98016 9.45722 3.66108 9.45758 3.36941C9.45821 2.85549 9.45874 2.42666 9.45683 1.69193M9.46282 7.0599L7.03955 1.66644L7.03955 1.66538C7.03955 1.19284 7.24309 0.843566 7.62695 0.603618L7.62816 0.602861L7.62815 0.602859C8.02245 0.354467 8.41782 0.346136 8.81945 0.576973L8.81976 0.577151C9.23715 0.816564 9.45438 1.17864 9.45683 1.69193" fill="#FF8C00" stroke="white" stroke-width="0.8"/>
</svg>
