<svg width="21" height="20" viewBox="0 0 21 20" fill="none" xmlns="http://www.w3.org/2000/svg">
<path d="M7.65994 16.2802L1.02573 16.2802" stroke="#FF8C00" stroke-width="2" stroke-linecap="round"/>
<path d="M19.6012 16.2802L7.65979 16.2802" stroke="#FF8C00" stroke-width="2" stroke-linecap="round"/>
<path d="M10.5231 16.1538C10.5231 14.4545 9.15829 13.0769 7.47474 13.0769C5.79118 13.0769 4.42639 14.4545 4.42639 16.1538C4.42639 17.8532 5.79119 19.2308 7.47474 19.2308C9.15829 19.2308 10.5231 17.8532 10.5231 16.1538Z" fill="#FF8C00" stroke="#FF8C00" stroke-width="1.5"/>
<path d="M12.9669 3.71983L19.6011 3.71983" stroke="#FF8C00" stroke-width="2" stroke-linecap="round"/>
<path d="M1.02564 3.71983L12.967 3.71983" stroke="#FF8C00" stroke-width="2" stroke-linecap="round"/>
<path d="M10.1037 3.84615C10.1037 5.54549 11.4685 6.92308 13.1521 6.92308C14.8356 6.92308 16.2004 5.54549 16.2004 3.84615C16.2004 2.14682 14.8356 0.769231 13.1521 0.769231C11.4685 0.769231 10.1037 2.14682 10.1037 3.84615Z" fill="#FF8C00" stroke="#FF8C00" stroke-width="1.5"/>
</svg>
