<svg width="20" height="20" viewBox="0 0 20 20" fill="none" xmlns="http://www.w3.org/2000/svg">
<path d="M19.2308 19.2308L17.3846 17.3846M9.53846 18.3077C10.6901 18.3077 11.8304 18.0809 12.8943 17.6402C13.9582 17.1995 14.9249 16.5535 15.7392 15.7392C16.5535 14.9249 17.1995 13.9582 17.6402 12.8943C18.0809 11.8304 18.3077 10.6901 18.3077 9.53846C18.3077 8.38687 18.0809 7.24655 17.6402 6.18262C17.1995 5.11869 16.5535 4.15198 15.7392 3.33768C14.9249 2.52338 13.9582 1.87744 12.8943 1.43675C11.8304 0.996053 10.6901 0.769231 9.53846 0.769231C7.21272 0.769231 4.98223 1.69313 3.33768 3.33768C1.69313 4.98223 0.769231 7.21272 0.769231 9.53846C0.769231 11.8642 1.69313 14.0947 3.33768 15.7392C4.98223 17.3838 7.21272 18.3077 9.53846 18.3077Z" stroke="#FC9C67" stroke-width="1.5" stroke-linecap="round" stroke-linejoin="round"/>
</svg>
