<svg width="14" height="12" viewBox="0 0 14 12" fill="none" xmlns="http://www.w3.org/2000/svg">
<path d="M9.62224 9.55983e-09C8.99996 0.000108555 8.38893 0.16584 7.85188 0.480176C7.31483 0.794513 6.87112 1.24613 6.56632 1.78864C6.26144 1.246 5.8176 0.794301 5.28038 0.479957C4.74317 0.165612 4.13195 -4.59484e-05 3.50953 9.55983e-09C2.55626 0.0514838 1.65954 0.468494 1.0059 1.16428C0.352258 1.86007 -0.00797503 2.78107 0.00013399 3.73569C0.00013399 8.60375 6.56632 12 6.56632 12C6.56632 12 13.1325 8.60549 13.1325 3.73569C13.1406 2.78093 12.7802 1.85981 12.1264 1.16399C11.4726 0.468183 10.5757 0.0512676 9.62224 9.55983e-09V9.55983e-09Z" fill="white"/>
</svg>
