<svg width="25" height="25" viewBox="0 0 25 25" fill="none" xmlns="http://www.w3.org/2000/svg">
<path d="M4.90625 1.125C4.69905 1.125 4.50034 1.20731 4.35382 1.35382C4.20731 1.50034 4.125 1.69905 4.125 1.90625C4.125 2.11345 4.20731 2.31216 4.35382 2.45868C4.50034 2.60519 4.69905 2.6875 4.90625 2.6875H5.29062C5.46027 2.68779 5.6252 2.7433 5.76051 2.84562C5.89582 2.94795 5.99414 3.09154 6.04062 3.25469L8.51875 11.9266C8.65891 12.4159 8.95459 12.8464 9.3611 13.1528C9.7676 13.4592 10.2628 13.625 10.7719 13.625H17.9109C18.3794 13.6251 18.8372 13.4847 19.2252 13.2221C19.6132 12.9595 19.9135 12.5866 20.0875 12.1516L22.3906 6.39219C22.4853 6.1552 22.5205 5.89862 22.4931 5.64489C22.4657 5.39116 22.3766 5.148 22.2336 4.93665C22.0905 4.72531 21.8979 4.55223 21.6725 4.43253C21.4471 4.31283 21.1958 4.25016 20.9406 4.25H7.95L7.54219 2.825C7.40238 2.33558 7.10706 1.90498 6.70084 1.59828C6.29463 1.29157 5.79962 1.12544 5.29062 1.125H4.90625ZM10.0219 11.4953L8.39687 5.8125H20.9391L18.6359 11.5719C18.5779 11.7167 18.4778 11.8408 18.3486 11.9283C18.2194 12.0157 18.067 12.0625 17.9109 12.0625H10.7719C10.6022 12.0622 10.4373 12.0067 10.302 11.9044C10.1667 11.8021 10.0684 11.6585 10.0219 11.4953ZM11.1562 19.875C11.464 19.875 11.7688 19.8144 12.0532 19.6966C12.3375 19.5788 12.5959 19.4062 12.8135 19.1885C13.0312 18.9709 13.2038 18.7125 13.3216 18.4282C13.4394 18.1438 13.5 17.839 13.5 17.5312C13.5 17.2235 13.4394 16.9187 13.3216 16.6343C13.2038 16.35 13.0312 16.0916 12.8135 15.874C12.5959 15.6563 12.3375 15.4837 12.0532 15.3659C11.7688 15.2481 11.464 15.1875 11.1562 15.1875C10.5346 15.1875 9.93851 15.4344 9.49897 15.874C9.05943 16.3135 8.8125 16.9096 8.8125 17.5312C8.8125 18.1529 9.05943 18.749 9.49897 19.1885C9.93851 19.6281 10.5346 19.875 11.1562 19.875ZM11.1562 18.3125C10.949 18.3125 10.7503 18.2302 10.6038 18.0837C10.4573 17.9372 10.375 17.7385 10.375 17.5312C10.375 17.324 10.4573 17.1253 10.6038 16.9788C10.7503 16.8323 10.949 16.75 11.1562 16.75C11.3635 16.75 11.5622 16.8323 11.7087 16.9788C11.8552 17.1253 11.9375 17.324 11.9375 17.5312C11.9375 17.7385 11.8552 17.9372 11.7087 18.0837C11.5622 18.2302 11.3635 18.3125 11.1562 18.3125ZM17.4062 19.875C17.714 19.875 18.0188 19.8144 18.3032 19.6966C18.5875 19.5788 18.8459 19.4062 19.0635 19.1885C19.2812 18.9709 19.4538 18.7125 19.5716 18.4282C19.6894 18.1438 19.75 17.839 19.75 17.5312C19.75 17.2235 19.6894 16.9187 19.5716 16.6343C19.4538 16.35 19.2812 16.0916 19.0635 15.874C18.8459 15.6563 18.5875 15.4837 18.3032 15.3659C18.0188 15.2481 17.714 15.1875 17.4062 15.1875C16.7846 15.1875 16.1885 15.4344 15.749 15.874C15.3094 16.3135 15.0625 16.9096 15.0625 17.5312C15.0625 18.1529 15.3094 18.749 15.749 19.1885C16.1885 19.6281 16.7846 19.875 17.4062 19.875ZM17.4062 18.3125C17.199 18.3125 17.0003 18.2302 16.8538 18.0837C16.7073 17.9372 16.625 17.7385 16.625 17.5312C16.625 17.324 16.7073 17.1253 16.8538 16.9788C17.0003 16.8323 17.199 16.75 17.4062 16.75C17.6134 16.75 17.8122 16.8323 17.9587 16.9788C18.1052 17.1253 18.1875 17.324 18.1875 17.5312C18.1875 17.7385 18.1052 17.9372 17.9587 18.0837C17.8122 18.2302 17.6134 18.3125 17.4062 18.3125Z" fill="black"/>
</svg>
